<?xml version="1.0" standalone="no"?>
<!DOCTYPE svg PUBLIC "-//W3C//DTD SVG 20010904//EN"
 "http://www.w3.org/TR/2001/REC-SVG-20010904/DTD/svg10.dtd">
<svg version="1.0" xmlns="http://www.w3.org/2000/svg"
 width="71.000000pt" height="71.000000pt" viewBox="0 0 71.000000 71.000000"
 preserveAspectRatio="xMidYMid meet">
<metadata>
Created by potrace 1.11, written by Peter Selinger 2001-2013
</metadata>
<g transform="translate(0.000000,71.000000) scale(0.100000,-0.100000)"
fill="#000000" stroke="none">
<path d="M0 360 l0 -350 355 0 355 0 0 350 0 350 -355 0 -355 0 0 -350z m583
170 c36 -28 52 -81 37 -124 -14 -44 -42 -68 -88 -75 -28 -5 -38 -11 -40 -29
-6 -43 -36 -52 -174 -52 -172 0 -168 -4 -168 170 l0 130 204 0 c189 0 205 -1
229 -20z m27 -325 c0 -21 -28 -56 -53 -65 -39 -13 -395 -13 -434 0 -25 9 -53
44 -53 65 0 3 122 5 270 5 149 0 270 -2 270 -5z"/>
<path d="M490 440 c0 -66 13 -76 58 -44 44 31 16 104 -40 104 -15 0 -18 -9
-18 -60z"/>
</g>
</svg>
